<?xml version="1.0" encoding="UTF-8" standalone="no"?>
<!-- Created with Inkscape (http://www.inkscape.org/) -->

<svg
    xmlns:dc="http://purl.org/dc/elements/1.1/"
    xmlns:cc="http://creativecommons.org/ns#"
    xmlns:rdf="http://www.w3.org/1999/02/22-rdf-syntax-ns#"
    xmlns:svg="http://www.w3.org/2000/svg"
    xmlns="http://www.w3.org/2000/svg"
    xmlns:sodipodi="http://sodipodi.sourceforge.net/DTD/sodipodi-0.dtd"
    xmlns:inkscape="http://www.inkscape.org/namespaces/inkscape"
    id="svg2"
    version="1.1"
    inkscape:version="0.91 r13725"
    xml:space="preserve"
    width="220"
    height="140"
    viewBox="0 0 220 140"
    sodipodi:docname="RU_vertical.svg"><metadata
     id="metadata8"><rdf:RDF><cc:Work
         rdf:about=""><dc:format>image/svg+xml</dc:format><dc:type
    rdf:resource="http://purl.org/dc/dcmitype/StillImage"/><dc:title></dc:title></cc:Work></rdf:RDF></metadata>
    <defs
        id="defs6"><clipPath
       clipPathUnits="userSpaceOnUse"
       id="clipPath16"><path
         d="M 0,800 1000,800 1000,0 0,0 0,800 Z"
         id="path18"
         inkscape:connector-curvature="0" /></clipPath>
        <linearGradient
            x1="0"
            y1="0"
            x2="1"
            y2="0"
            gradientUnits="userSpaceOnUse"
            gradientTransform="matrix(11.496903,99.59932,99.59932,-11.496903,494.63965,388.46973)"
            spreadMethod="pad"
            id="linearGradient72"><stop
         style="stop-opacity:1;stop-color:#e85b2a"
         offset="0"
         id="stop74" />
            <stop
                style="stop-opacity:1;stop-color:#e85b2a"
                offset="0.10940909"
                id="stop76"/>
            <stop
                style="stop-opacity:1;stop-color:#f7e72e"
                offset="1"
                id="stop78"/>
            <stop
                style="stop-opacity:1;stop-color:#f7e72e"
                offset="1"
                id="stop80"/></linearGradient>
        <linearGradient
            x1="0"
            y1="0"
            x2="1"
            y2="0"
            gradientUnits="userSpaceOnUse"
            gradientTransform="matrix(63.782196,54.626633,54.626633,-63.782196,421.99854,434.1709)"
            spreadMethod="pad"
            id="linearGradient96"><stop
         style="stop-opacity:1;stop-color:#1170b2"
         offset="0"
         id="stop98" />
            <stop
                style="stop-opacity:1;stop-color:#1170b2"
                offset="0"
                id="stop100"/>
            <stop
                style="stop-opacity:1;stop-color:#6ec5d7"
                offset="1"
                id="stop102"/></linearGradient>
        <linearGradient
            x1="0"
            y1="0"
            x2="1"
            y2="0"
            gradientUnits="userSpaceOnUse"
            gradientTransform="matrix(59.666779,-52.8134,-52.8134,-59.666779,423.73926,437.76123)"
            spreadMethod="pad"
            id="linearGradient118"><stop
         style="stop-opacity:1;stop-color:#6ec5d7"
         offset="0"
         id="stop120" />
            <stop
                style="stop-opacity:1;stop-color:#1170b2"
                offset="1"
                id="stop122"/>
            <stop
                style="stop-opacity:1;stop-color:#1170b2"
                offset="1"
                id="stop124"/></linearGradient>
        <linearGradient
            x1="0"
            y1="0"
            x2="1"
            y2="0"
            gradientUnits="userSpaceOnUse"
            gradientTransform="matrix(54.297302,-50.252747,-50.252747,-54.297287,517.51465,487.00586)"
            spreadMethod="pad"
            id="linearGradient140"><stop
         style="stop-opacity:1;stop-color:#8ebd43"
         offset="0"
         id="stop142" />
            <stop
                style="stop-opacity:1;stop-color:#009245"
                offset="1"
                id="stop144"/></linearGradient>
        <linearGradient
            x1="0"
            y1="0"
            x2="1"
            y2="0"
            gradientUnits="userSpaceOnUse"
            gradientTransform="matrix(53.730331,48.925827,48.925827,-53.730331,516.53223,385.10059)"
            spreadMethod="pad"
            id="linearGradient160"><stop
         style="stop-opacity:1;stop-color:#009245"
         offset="0"
         id="stop162" />
            <stop
                style="stop-opacity:1;stop-color:#009245"
                offset="0.0175934"
                id="stop164"/>
            <stop
                style="stop-opacity:1;stop-color:#8ebd43"
                offset="1"
                id="stop166"/></linearGradient></defs>
    <sodipodi:namedview
        pagecolor="#ffffff"
        bordercolor="#666666"
        borderopacity="1"
        objecttolerance="10"
        gridtolerance="10"
        guidetolerance="10"
        inkscape:pageopacity="0"
        inkscape:pageshadow="2"
        inkscape:window-width="1920"
        inkscape:window-height="1018"
        id="namedview4"
        showgrid="false"
        inkscape:zoom="1.3350176"
        inkscape:cx="228.75179"
        inkscape:cy="146.02077"
        inkscape:window-x="1352"
        inkscape:window-y="-8"
        inkscape:window-maximized="1"
        inkscape:current-layer="g10"/>
    <g
        id="g10"
        inkscape:groupmode="layer"
        inkscape:label="RU_RGB"
        transform="matrix(1.25,0,0,-1.25,0,140)"><g
       id="g12"
       transform="matrix(0.43016377,0,0,0.43016377,-127.08182,-129.17917)"
       style="fill:#ffffff"><g
         id="g14"
         clip-path="url(#clipPath16)"
         style="fill:#ffffff"><g
           id="g20"
           transform="translate(316.2246,312.3281)"
           style="fill:#ffffff"><path
             d="m 0,0 c -4.739,0 -11.177,0.637 -15.775,5.801 -4.669,5.234 -5.023,12.803 -5.023,18.251 0,7.073 0.637,14.36 4.811,19.241 4.952,5.801 12.662,6.225 16.199,6.225 l 19.878,0 0,-7.428 -15.492,0 c -5.518,0 -10.187,-0.354 -13.016,-4.598 -1.485,-2.193 -2.759,-5.942 -2.759,-13.299 0,-7.427 1.344,-10.469 2.334,-12.026 2.547,-3.891 7.074,-4.739 12.946,-4.739 l 16.765,0 L 20.868,0 0,0 Z"
             style="fill:#ffffff;fill-opacity:1;fill-rule:nonzero;stroke:none"
             id="path22"
             inkscape:connector-curvature="0" /></g><g
        id="g24"
        transform="translate(352.0176,321.3828)"
        style="fill:#ffffff"><path
             d="m 0,0 c 2.405,-2.759 6.013,-3.112 8.983,-3.112 3.114,0 6.438,0.353 8.914,3.112 2.476,2.759 2.476,6.366 2.476,9.621 0,2.759 0.212,7.003 -2.405,9.903 -2.405,2.689 -6.013,2.971 -8.985,2.971 -2.687,0 -6.719,-0.282 -9.054,-2.971 C -2.405,16.836 -2.405,12.025 -2.405,9.621 -2.405,6.508 -2.335,2.688 0,0 M 24.122,24.9 C 28.438,20.868 28.933,13.794 28.933,9.833 28.933,1.91 26.881,-2.83 24.122,-5.447 20.09,-9.196 13.299,-9.479 8.983,-9.479 c -4.456,0 -11.035,0.283 -15.137,4.032 -4.457,4.103 -4.811,11.176 -4.811,14.997 0,4.244 0.495,11.318 4.811,15.35 4.102,3.821 10.681,3.961 15.137,3.961 4.457,0 11.037,-0.14 15.139,-3.961"
             style="fill:#ffffff;fill-opacity:1;fill-rule:nonzero;stroke:none"
             id="path26"
             inkscape:connector-curvature="0" /></g><g
        id="g28"
        transform="translate(419.502,318.6943)"
        style="fill:#ffffff"><path
             d="m 0,0 c 4.527,0 6.933,0.85 8.348,3.325 1.414,2.334 1.485,5.376 1.485,8.56 0,4.669 -0.354,7.923 -1.769,9.903 -1.98,2.759 -5.588,2.971 -7.922,2.971 l -4.245,0 L -4.103,0 0,0 Z m -12.38,24.759 -4.244,0 c -2.264,0 -5.871,-0.212 -7.923,-2.971 -1.202,-1.697 -1.768,-4.456 -1.768,-9.903 0,-3.184 0.071,-6.226 1.486,-8.56 C -23.415,0.85 -21.01,0 -16.482,0 l 4.102,0 0,24.759 z m 8.277,18.392 0,-12.025 7.64,0 c 3.961,0 9.055,-0.778 12.238,-5.871 2.618,-4.174 2.618,-9.126 2.618,-13.3 0,-5.022 -0.284,-9.337 -3.113,-13.227 C 11.743,-6.154 6.862,-6.366 3.254,-6.366 l -7.357,0 0,-12.026 -8.277,0 0,12.026 -7.356,0 c -3.466,0 -8.489,0.212 -12.026,5.094 -2.688,3.677 -3.112,8.558 -3.112,13.227 0,3.891 0.212,9.338 2.617,13.3 3.112,5.093 8.347,5.871 12.237,5.871 l 7.64,0 0,12.025 8.277,0 z"
             style="fill:#ffffff;fill-opacity:1;fill-rule:nonzero;stroke:none"
             id="path30"
             inkscape:connector-curvature="0" /></g><g
        id="g32"
        transform="translate(453.8086,312.3281)"
        style="fill:#ffffff"><path
             d="m 0,0 0,31.125 -14.077,0 0,6.367 36.431,0 0,-6.367 -14.078,0 L 8.276,0 0,0 Z"
             style="fill:#ffffff;fill-opacity:1;fill-rule:nonzero;stroke:none"
             id="path34"
             inkscape:connector-curvature="0" /></g><g
        id="g36"
        transform="translate(518.8887,312.3281)"
        style="fill:#ffffff"><path
             d="m 0,0 0,44.637 c 0,0.353 0,1.415 -0.707,1.415 -0.637,0 -1.273,-1.202 -1.769,-2.052 L -28.013,3.749 c -1.415,-2.192 -2.547,-4.315 -5.589,-4.315 -3.961,0 -4.172,3.82 -4.172,5.73 l 0,44.354 3.819,0 0,-43.929 c 0,-0.991 -0.212,-2.123 0.849,-2.123 0.636,0 0.991,0.92 1.344,1.415 L -6.649,44.85 c 1.98,3.111 3.042,5.234 6.225,5.234 4.244,0 4.244,-4.881 4.244,-6.154 L 3.82,0 0,0 Z"
             style="fill:#ffffff;fill-opacity:1;fill-rule:nonzero;stroke:none"
             id="path38"
             inkscape:connector-curvature="0" /></g><g
        id="g40"
        transform="translate(557.3701,312.3281)"
        style="fill:#ffffff"><path
             d="m 0,0 0,17.685 -22.495,0 0,-17.685 -3.679,0 0,37.492 3.679,0 0,-16.482 22.495,0 0,16.482 3.678,0 L 3.678,0 0,0 Z"
             style="fill:#ffffff;fill-opacity:1;fill-rule:nonzero;stroke:none"
             id="path42"
             inkscape:connector-curvature="0" /></g><g
        id="g44"
        transform="translate(571.7998,317.9873)"
        style="fill:#ffffff"><path
             d="m 0,0 c 0,-0.637 0.07,-1.344 0.424,-1.769 0.495,-0.565 1.132,-0.565 1.84,-0.565 l 13.369,0 c 2.052,0 3.679,0.07 4.952,1.627 1.344,1.627 1.344,3.891 1.344,5.8 0,1.628 0,3.82 -1.344,5.447 -1.202,1.415 -2.689,1.698 -4.174,1.698 L 0,12.238 0,0 Z m 16.411,15.563 c 1.557,0 2.901,0.141 4.103,1.556 1.344,1.485 1.415,3.396 1.415,5.093 0,1.415 0,3.607 -1.556,5.023 -1.273,1.203 -2.9,1.274 -3.962,1.274 l -14.926,0 c -0.283,0 -0.92,-0.143 -1.131,-0.355 C 0.141,27.942 0,27.447 0,27.164 l 0,-11.601 16.411,0 z m -20.09,11.813 c 0,1.273 0.495,2.477 1.202,3.184 0.779,0.778 2.052,1.273 3.184,1.273 l 16.341,0 c 1.556,0 4.881,-0.213 6.932,-2.759 1.627,-1.981 1.911,-5.022 1.911,-7.286 0,-1.91 -0.072,-3.962 -1.415,-5.659 -0.637,-0.849 -1.769,-1.91 -3.749,-2.193 l 0,-0.142 c 1.838,-0.354 3.112,-1.344 3.89,-2.405 1.274,-1.698 1.274,-3.749 1.274,-5.66 0,-3.112 -0.142,-6.507 -2.477,-9.054 -1.839,-1.981 -3.961,-2.334 -5.659,-2.334 l -17.401,0 c -1.274,0 -2.477,0.495 -3.113,1.202 -0.849,0.92 -0.92,2.123 -0.92,3.255 l 0,28.578 z"
             style="fill:#ffffff;fill-opacity:1;fill-rule:nonzero;stroke:none"
             id="path46"
             inkscape:connector-curvature="0" /></g><g
        id="g48"
        transform="translate(628.7432,333.126)"
        style="fill:#ffffff"><path
             d="m 0,0 c 1.627,0 1.557,1.98 1.557,2.476 0,3.677 -1.274,6.154 -2.547,7.639 -2.689,3.184 -6.367,3.255 -9.692,3.255 -3.749,0 -7.781,-0.142 -10.398,-4.527 C -22.566,6.366 -22.778,3.678 -22.849,0 L 0,0 Z m -13.865,-20.798 c -3.042,0 -7.003,0.778 -9.904,4.598 -2.9,3.75 -3.042,8.489 -3.042,14.007 0,5.234 0.284,11.601 5.023,15.563 3.395,2.829 7.994,3.324 11.743,3.324 2.617,0 6.508,-0.353 9.55,-2.122 C 0.99,13.652 5.518,10.54 5.518,2.688 5.518,1.627 5.447,-0.92 3.961,-2.193 2.829,-3.184 1.061,-3.325 0,-3.325 l -22.849,0 c -0.071,-2.194 0.071,-5.659 0.637,-7.64 0.849,-3.042 3.396,-6.508 8.347,-6.508 l 18.392,0 0,-3.325 -18.392,0 z"
             style="fill:#ffffff;fill-opacity:1;fill-rule:nonzero;stroke:none"
             id="path50"
             inkscape:connector-curvature="0" /></g><g
        id="g52"
        transform="translate(666.0928,312.3281)"
        style="fill:#ffffff"><path
             d="m 0,0 0,17.685 -22.495,0 0,-17.685 -3.679,0 0,37.492 3.679,0 0,-16.482 22.495,0 0,16.482 3.678,0 L 3.678,0 0,0 Z"
             style="fill:#ffffff;fill-opacity:1;fill-rule:nonzero;stroke:none"
             id="path54"
             inkscape:connector-curvature="0" /></g><g
        id="g56"
        transform="translate(686.7471,312.3281)"
        style="fill:#ffffff"><path
             d="m 0,0 0,34.168 -14.147,0 0,3.324 31.973,0 0,-3.324 -14.147,0 L 3.679,0 0,0 Z"
             style="fill:#ffffff;fill-opacity:1;fill-rule:nonzero;stroke:none"
             id="path58"
             inkscape:connector-curvature="0" /></g></g></g>
        <g
            id="g4304"
            transform="matrix(0.91173616,0,0,0.91173616,-115.18205,-226.41082)"><g
         style="fill:#fec110;fill-opacity:1"
         transform="matrix(0.68514933,0,0,0.68514933,-119.14357,38.107771)"
         id="g3394"><g
           style="fill:#fec110;fill-opacity:1"
           id="g3396"><g
             style="fill:#fec110;fill-opacity:1"
             id="g3402"><g
               style="fill:#fec110;fill-opacity:1"
               id="g3404"><path
                 inkscape:connector-curvature="0"
                 id="path3416"
                 style="fill:#fec110;fill-opacity:1;stroke:none"
                 d="m 504.307,486.119 -30.914,-100 22.581,0 30.914,100 -22.581,0 z" /></g></g></g></g>
            <g
                style="fill:#34a5dd;fill-opacity:1"
                transform="matrix(0.68514933,0,0,0.68514933,-119.14357,38.107771)"
                id="g3418"><g
           style="fill:#34a5dd;fill-opacity:1"
           id="g3420"><g
             style="fill:#34a5dd;fill-opacity:1"
             id="g3426"><g
               style="fill:#34a5dd;fill-opacity:1"
               id="g3428"><path
                 inkscape:connector-curvature="0"
                 id="path3438"
                 style="fill:#34a5dd;fill-opacity:1;stroke:none"
                 d="m 460.502,486.119 -40.115,-49.672 26.418,0 -0.012,0.015 40.321,49.657 -26.612,0 z" /></g></g></g></g>
            <g
                style="fill:#54c3f0;fill-opacity:1"
                transform="matrix(0.68514933,0,0,0.68514933,-119.14357,38.107771)"
                id="g3440"><g
           style="fill:#54c3f0;fill-opacity:1"
           id="g3442"><g
             style="fill:#54c3f0;fill-opacity:1"
             id="g3448"><g
               style="fill:#54c3f0;fill-opacity:1"
               id="g3450"><path
                 inkscape:connector-curvature="0"
                 id="path3460"
                 style="fill:#54c3f0;fill-opacity:1;stroke:none"
                 d="m 420.387,436.447 40.115,-50.328 26.612,0 -40.309,50.328 -26.418,0 z" /></g></g></g></g>
            <g
                style="fill:#8bc44a;fill-opacity:1"
                transform="matrix(0.68514933,0,0,0.68514933,-119.14357,38.107771)"
                id="g3462"><g
           style="fill:#8bc44a;fill-opacity:1"
           id="g3464"><g
             style="fill:#8bc44a;fill-opacity:1"
             id="g3470"><g
               style="fill:#8bc44a;fill-opacity:1"
               id="g3472"><path
                 inkscape:connector-curvature="0"
                 id="path3480"
                 style="fill:#8bc44a;fill-opacity:1;stroke:none"
                 d="m 512.884,486.119 38.21,-49.65 26.828,0 -38.425,49.65 -26.613,0 z" /></g></g></g></g>
            <g
                style="fill:#49b050;fill-opacity:1"
                transform="matrix(0.68514933,0,0,0.68514933,-119.14357,38.107771)"
                id="g3482"><g
           style="fill:#49b050;fill-opacity:1"
           id="g3484"><g
             style="fill:#49b050;fill-opacity:1"
             id="g3490"><g
               style="fill:#49b050;fill-opacity:1"
               id="g3492"><path
                 inkscape:connector-curvature="0"
                 id="path3502"
                 style="fill:#49b050;fill-opacity:1;stroke:none"
                 d="m 551.094,436.469 -38.21,-50.35 26.613,0 38.425,50.35 -26.828,0 z" /></g></g></g></g></g></g></svg>
